# xmcd
#
# Track frame offsets:
#	150
#	23011
#	41083
#	57967
#	109820
#
# Disc length: 1686 seconds
#
# Revision: 0
# Processed by: cddbd v1.5.2PL0 Copyright (c) Steve Scherf et al.
# Submitted via: EasyCDDAExtractor 16.0.6.1
#
DISCID=3a069405
DTITLE=Stanley Rubyn - Little by Litle
DYEAR=1900
DGENRE=Soul
TTITLE0=Come Closer
TTITLE1=Little by Little
TTITLE2=No Limit
TTITLE3=Reflection
TTITLE4=Ndu Waa
EXTD=
EXTT0=
EXTT1=
EXTT2=
EXTT3=
EXTT4=
PLAYORDER=
